Normalized EMG Linear Envelopes
nRows=145
nColumns=4

endheader
time	 med_gas_r	  soleus_r	 tib_ant_r	
4.36565	  0.021917	  0.030459	  0.017201	
4.43722	  0.021778	  0.029663	  0.016921	
4.50878	  0.021809	  0.029197	  0.016171	
4.58035	  0.021515	  0.029323	  0.014619	
4.65192	  0.021253	  0.029816	  0.012880	
4.72349	  0.021598	  0.030528	  0.012380	
4.79506	  0.022461	  0.031566	  0.016520	
4.86662	  0.023945	  0.033144	  0.030791	
4.93819	  0.025873	  0.035463	  0.058149	
5.00976	  0.027659	  0.038407	  0.091138	
5.08133	  0.027971	  0.040080	  0.112961	
5.1529	  0.026520	  0.039732	  0.115727	
5.22446	  0.025425	  0.038678	  0.117975	
5.29603	  0.026145	  0.039517	  0.137419	
5.3676	  0.029997	  0.043896	  0.176273	
5.43917	  0.038951	  0.050424	  0.219916	
5.51074	  0.052582	  0.056757	  0.242726	
5.5823	  0.065296	  0.062026	  0.246413	
5.65387	  0.072222	  0.064638	  0.248330	
5.72544	  0.076669	  0.064514	  0.248815	
5.79701	  0.076225	  0.061425	  0.247975	
5.86858	  0.068576	  0.057737	  0.257889	
5.94014	  0.065408	  0.054478	  0.270637	
6.01171	  0.064271	  0.050930	  0.280738	
6.08328	  0.061540	  0.048430	  0.276449	
6.15485	  0.062258	  0.048243	  0.277664	
6.22642	  0.062817	  0.049816	  0.293484	
6.29798	  0.062435	  0.052326	  0.322352	
6.36955	  0.060197	  0.053609	  0.349042	
6.44112	  0.056243	  0.055091	  0.360305	
6.51269	  0.054747	  0.057182	  0.357935	
6.58426	  0.059255	  0.057663	  0.347653	
6.65582	  0.070488	  0.057186	  0.324062	
6.72739	  0.085900	  0.058963	  0.298228	
6.79896	  0.107592	  0.062714	  0.266207	
6.87053	  0.134227	  0.069186	  0.239720	
6.9421	  0.156208	  0.076357	  0.231866	
7.01366	  0.153344	  0.081861	  0.259744	
7.08523	  0.136543	  0.089199	  0.343711	
7.1568	  0.133792	  0.099436	  0.468735	
7.22837	  0.142104	  0.108626	  0.582440	
7.29994	  0.146815	  0.113304	  0.626768	
7.3715	  0.137975	  0.112045	  0.609693	
7.44307	  0.131212	  0.106909	  0.560394	
7.51464	  0.130170	  0.102535	  0.521086	
7.58621	  0.126724	  0.101719	  0.507002	
7.65778	  0.123255	  0.105305	  0.529852	
7.72934	  0.127059	  0.104304	  0.570886	
7.80091	  0.133078	  0.096484	  0.611177	
7.87248	  0.139249	  0.090664	  0.633724	
7.94405	  0.141940	  0.087152	  0.624033	
8.01562	  0.133086	  0.082698	  0.626038	
8.08718	  0.126119	  0.078655	  0.640928	
8.15875	  0.124288	  0.078141	  0.642911	
8.23032	  0.125724	  0.080847	  0.611468	
8.30189	  0.133654	  0.086882	  0.586120	
8.37346	  0.143008	  0.091096	  0.582484	
8.44502	  0.140092	  0.094126	  0.613369	
8.51659	  0.132394	  0.095143	  0.643455	
8.58816	  0.125751	  0.095803	  0.662197	
8.65973	  0.117693	  0.097061	  0.667144	
8.7313	  0.108375	  0.094281	  0.665368	
8.80286	  0.102595	  0.088246	  0.670655	
8.87443	  0.108049	  0.084456	  0.667854	
8.946	  0.120650	  0.087582	  0.663515	
9.01757	  0.126524	  0.093742	  0.659777	
9.08914	  0.129772	  0.100131	  0.676928	
9.1607	  0.128581	  0.104406	  0.704808	
9.23227	  0.120986	  0.104096	  0.719153	
9.30384	  0.118909	  0.101464	  0.713398	
9.37541	  0.122380	  0.096922	  0.696488	
9.44698	  0.120200	  0.092284	  0.694852	
9.51854	  0.118674	  0.088367	  0.688835	
9.59011	  0.122867	  0.087920	  0.668086	
9.66168	  0.122340	  0.092091	  0.641119	
9.73325	  0.113948	  0.097050	  0.632111	
9.80482	  0.108632	  0.097815	  0.658482	
9.87638	  0.109786	  0.092814	  0.693869	
9.94795	  0.107201	  0.086040	  0.707119	
10.0195	  0.109820	  0.081279	  0.678855	
10.0911	  0.117856	  0.083171	  0.629879	
10.1627	  0.123744	  0.093377	  0.610213	
10.2342	  0.135227	  0.109537	  0.631551	
10.3058	  0.145183	  0.127120	  0.684556	
10.3774	  0.145226	  0.135239	  0.740832	
10.4489	  0.138313	  0.128240	  0.762455	
10.5205	  0.127034	  0.118812	  0.746601	
10.5921	  0.128640	  0.115015	  0.694226	
10.6636	  0.148136	  0.104662	  0.541024	
10.7352	  0.178602	  0.085757	  0.313026	
10.8068	  0.198500	  0.071489	  0.149875	
10.8783	  0.197871	  0.061268	  0.082094	
10.9499	  0.197811	  0.057925	  0.064185	
11.0215	  0.213350	  0.061147	  0.048261	
11.093	  0.226211	  0.065554	  0.032961	
11.1646	  0.232855	  0.068173	  0.024081	
11.2362	  0.229682	  0.068205	  0.020410	
11.3077	  0.226779	  0.069447	  0.019275	
11.3793	  0.236885	  0.072547	  0.019577	
11.4509	  0.235937	  0.074020	  0.020685	
11.5224	  0.219746	  0.074096	  0.021518	
11.594	  0.205729	  0.073745	  0.021848	
11.6656	  0.197421	  0.073071	  0.022429	
11.7372	  0.194355	  0.071612	  0.022597	
11.8087	  0.193316	  0.067832	  0.022196	
11.8803	  0.190865	  0.063522	  0.021755	
11.9519	  0.181174	  0.061167	  0.021608	
12.0234	  0.173262	  0.062291	  0.021358	
12.095	  0.163930	  0.066172	  0.020975	
12.1666	  0.160386	  0.068614	  0.020261	
12.2381	  0.160260	  0.066414	  0.019383	
12.3097	  0.159692	  0.062505	  0.018647	
12.3813	  0.159115	  0.060365	  0.017665	
12.4528	  0.158147	  0.059780	  0.016951	
12.5244	  0.162092	  0.061302	  0.016983	
12.596	  0.160089	  0.061358	  0.017388	
12.6675	  0.152702	  0.058131	  0.017774	
12.7391	  0.148121	  0.054848	  0.018333	
12.8107	  0.139535	  0.052431	  0.018525	
12.8822	  0.131808	  0.050999	  0.017881	
12.9538	  0.130861	  0.050616	  0.017222	
13.0254	  0.128755	  0.049227	  0.016748	
13.0969	  0.121675	  0.047081	  0.016319	
13.1685	  0.117549	  0.045033	  0.016299	
13.2401	  0.112753	  0.043169	  0.016459	
13.3116	  0.106775	  0.042555	  0.016298	
13.3832	  0.095084	  0.042528	  0.015952	
13.4548	  0.085199	  0.041807	  0.015800	
13.5264	  0.085708	  0.040797	  0.016012	
13.5979	  0.089017	  0.040524	  0.016162	
13.6695	  0.090706	  0.041611	  0.016302	
13.7411	  0.091161	  0.044346	  0.016602	
13.8126	  0.093674	  0.048902	  0.016924	
13.8842	  0.101755	  0.054382	  0.016875	
13.9558	  0.102130	  0.054752	  0.016739	
14.0273	  0.088961	  0.047740	  0.016493	
14.0989	  0.076567	  0.040193	  0.016127	
14.1705	  0.065082	  0.034821	  0.015979	
14.242	  0.055200	  0.032127	  0.016203	
14.3136	  0.051531	  0.031629	  0.016431	
14.3852	  0.048885	  0.031830	  0.016181	
14.4567	  0.039584	  0.031691	  0.015658	
14.5283	  0.031643	  0.031519	  0.015255	
14.5999	  0.028351	  0.031726	  0.015071	
14.6714	  0.028145	  0.031886	  0.014990	
